<svg width="83" height="24" viewBox="0 0 83 24" fill="none" xmlns="http://www.w3.org/2000/svg">
<path d="M11.327 0.00271565C16.6198 -0.0783156 19.826 1.64603 19.9062 6.25401C19.9463 8.57042 18.3432 10.1014 16.8662 10.4655C18.3547 10.6816 20.9386 11.5264 20.9982 14.9762C21.083 19.8889 18.1862 21.368 12.8567 21.4501C8.84731 21.5117 1.5435 22 1.5435 22L0 1.84915C0 1.84915 6.85807 0.0718623 11.327 0.00271565ZM7.01849 8.36298C7.01849 8.36298 9.9061 8.35326 11.7235 8.32516C12.4775 8.31328 12.8728 7.79576 12.8567 6.87417C12.8384 5.8078 12.2884 4.97155 11.0864 4.98992C9.35723 5.01693 6.85922 5.46422 6.85922 5.46422L7.01849 8.36298ZM7.44705 16.3775L12.1165 16.3743C13.2383 16.357 13.66 15.5996 13.6451 14.7461C13.621 13.3469 12.9301 12.2654 11.4748 12.2871C9.6013 12.3162 7.30955 12.6587 7.30955 12.6587L7.44591 16.3775H7.44705Z" fill="white"/>
<path d="M21 0.812903L28.1978 0L30.8515 7.95107L34.9133 0.424028L42 1.79608L33.761 13.6535L33.0586 22L27.1221 20.9026L27.6096 13.1745L21 0.812903Z" fill="white"/>
<path d="M42.0102 11.4373C41.7573 4.55702 46.2261 0.233781 53.9018 0.00926906C61.6035 -0.216349 64.6926 3.67667 64.9889 11.7093C65.1848 17.0523 62.7799 20.1225 58.2417 21.3656L59.0846 23.7666L51.1003 24L50.8821 21.9152C45.3237 21.3092 42.2507 17.9824 42.0102 11.4373ZM49.4565 11.2548C49.5892 14.8547 51.5292 16.5424 54.3096 16.4606C56.6996 16.3909 57.8202 14.9731 57.6715 10.944C57.5611 7.9413 57.0814 5.50816 54.3406 5.58779C51.1313 5.6818 49.3252 7.69135 49.4553 11.2537L49.4565 11.2548Z" fill="white"/>
<path d="M71.1164 22.7357L65 21.8592L66.4707 0.615896C66.4707 0.615896 71.0604 -0.0882462 74.7811 0.0092679C80.576 0.161208 83.1021 3.7012 82.9968 9.2527C82.9264 12.9514 81.6469 15.014 79.3177 15.8927H79.3312L82.4725 24L76.2614 23.3004L73.9545 16.2544H73.9738C72.6383 16.0707 71.3086 15.7907 71.3086 15.7907L71.1155 22.7357H71.1164ZM71.4998 10.5646C71.4998 10.5646 73.5306 11.0114 75.0602 11.0522C76.3657 11.0862 77.3864 10.6576 77.4115 9.35815C77.4415 7.80359 76.6689 6.75928 74.7463 6.70826C73.5566 6.67764 71.6939 6.77176 71.6939 6.77176L71.4998 10.5646Z" fill="white"/>
</svg>
